<svg xmlns="http://www.w3.org/2000/svg" width="2048" height="2048"><path d="M733.068 671.883c-.006.34-.009.682-.009 1.023 0 31.526 25.221 56.747 56.747 56.747h73.861c31.526 0 56.747 25.221 56.747 56.747s-25.221 56.747-56.747 56.747h-75.663c-31.526 0-56.747 26.122-56.747 56.747 0 31.527 25.221 56.747 56.747 56.747h73.861c31.527 0 56.748 25.221 56.748 56.748 0 31.526-25.221 56.747-56.748 56.747h-73.861c-31.526 0-56.747 26.121-56.747 56.747 0 31.526 25.221 56.747 56.747 56.747h73.861c31.527 0 56.748 25.221 56.748 56.747s-25.221 56.747-56.748 56.747h-73.861c-31.526 0-56.747 26.122-56.747 56.747 0 .342.003.683.009 1.023H562.042c-25.962 0-47.931 21.968-47.93 47.931 0 25.962 21.968 47.93 47.93 47.93h537.222c227.671 0 413.402-196.715 413.402-438.365 0-240.652-185.731-436.368-414.4-436.368H562.042c-25.962 0-47.931 21.968-47.931 47.93 0 25.963 21.969 47.931 47.931 47.931h171.026z" fill="#070200"/></svg>
